<?xml version="1.0" encoding="UTF-8"?>
<svg xmlns="http://www.w3.org/2000/svg" viewBox="0 0 1549 775" width="1549" height="775">
<path d="M1249.5 142.21C1247.5 152.88 1245.5 163.55 1243.5 174.22C1210.76 179.31 1178.02 184.41 1145.29 189.5C1145.29 197.37 1145.29 205.24 1145.29 213.11C1175.78 208.91 1206.28 204.7 1236.78 200.5C1235.13 210.5 1233.48 220.5 1231.84 230.5C1202.67 234.81 1173.51 239.13 1144.35 243.44C1144.35 251.26 1144.35 259.08 1144.35 266.9C1153.46 266.82 1162.68 264.74 1171.68 263.38C1184.92 261.39 1198.24 259.77 1211.5 257.95C1219.29 256.88 1228.83 253.91 1236.45 255.5C1234.8 265.34 1233.15 275.18 1231.5 285.02C1224.81 286.85 1217.43 287.31 1210.53 288.27C1201.18 289.56 1191.85 290.96 1182.5 292.21C1154.97 295.87 1127.21 300.4 1099.5 302.37C1098.18 297.59 1098.79 292.5 1098.83 287.5C1098.92 277.83 1099.05 268.17 1099.07 258.5C1099.11 237.84 1099.52 217.16 1099.98 196.5C1100.21 186.1 1099.23 175.3 1100.5 164.99C1108.37 162.14 1118.17 162.13 1126.5 160.91C1141.84 158.65 1157.17 156.24 1172.48 153.83C1188.81 151.25 1205.18 148.62 1221.47 145.82C1230.41 144.28 1240.46 141.51 1249.5 142.21ZM522.99 168.5C520.16 178.91 517.33 189.31 514.5 199.72C506.6 199.63 497.95 194.44 490.16 192.42C469.4 187.05 439.79 181.24 420.11 192.59C395.23 206.94 396.86 247.58 418.19 264.33C435.39 277.84 459.78 278.55 480.55 278.5C482.62 275.04 481.68 257.34 481.47 252.5C472.25 251.5 463.03 250.5 453.8 249.5C453.8 240.17 453.8 230.83 453.8 221.5C477.53 223.56 501.26 225.61 524.98 227.67C524.98 254.39 524.98 281.11 524.98 307.82C512.5 309.86 500.13 310.36 487.5 310.28C438.96 309.98 371.13 304.62 357.42 247.19C355.42 238.81 354.56 230.11 354.87 221.5C355.15 213.76 356.52 205.91 359.18 198.63C377.32 148.97 435.61 148.45 479.55 155.74C493.79 158.1 510.44 160.95 522.99 168.5ZM200.75 167.5C202.88 173.36 201.59 181.25 201.58 187.5C201.58 198.83 201.54 210.17 201.56 221.5C201.57 227.44 201.03 233.72 202.2 239.5C213.34 240.37 224.59 240.84 235.76 241.53C241.83 241.91 248.68 243 254.35 240.47C250.83 240.47 247.3 240.47 243.78 240.47C242.39 237.14 242.56 232.42 244 229.11C245.84 229.11 247.67 229.11 249.5 229.11C250.45 226.59 250.91 225.38 253.5 224.45C256.86 225.58 255.8 227.57 257.75 228.67C259.03 229.4 262.02 229.22 263.54 229.5C263.54 233.25 263.54 237 263.54 240.76C261.39 240.76 259.24 240.76 257.1 240.76C259.7 241.67 262.3 242.59 264.91 243.5C263.96 248.69 262.81 255.94 259.5 260.01C254.59 260.13 248.37 259 243.63 260.23C241.13 260.88 239.12 264.12 237.31 265.83C232.53 270.37 227.85 275.02 223.13 279.63C220.59 282.12 217.67 283.94 217.5 287.55C216.25 287.81 215.14 287.86 214 288.5C211.78 289.73 202.83 298.35 202.03 300.61C200.32 305.42 201.39 322.33 201.93 327.93C223.88 327.93 245.82 327.93 267.76 327.93C267.76 324.79 267.76 321.64 267.76 318.5C271.47 315.44 274.31 318.71 276.86 313.5C265.02 309.2 253.19 304.76 241.59 299.87C237.62 298.19 230.84 296.37 228.5 292.86C233.26 291.79 243.87 297.71 248.75 299.69C265.62 306.54 282.39 313.11 299.68 318.74C354.56 336.62 411.69 348.26 468.53 357.77C549.01 371.25 631.02 376.98 712.5 380.27C847.44 385.7 983.46 379.47 1116.57 356.28C1154.17 349.73 1191.09 340.79 1227.8 330.39C1247.06 324.93 1266.21 318.84 1284.66 311.15C1297.07 305.98 1309.4 300.65 1321.7 295.22C1327.97 292.45 1336.08 289.91 1341.23 285.5C1335.64 279.41 1329.49 273.71 1323.54 267.96C1321.43 265.93 1318.48 261.84 1315.82 260.68C1311.33 258.7 1303.01 260.86 1297.73 259.5C1296.64 254.17 1295.55 248.83 1294.45 243.5C1297.38 242.86 1299.87 243.35 1302.08 241.5C1300.47 241.15 1297.1 241.56 1295.76 240.67C1293.93 239.47 1294.74 231.94 1295.5 229.87C1297.5 229.87 1299.5 229.87 1301.5 229.87C1302.74 227.28 1303.54 225.67 1306.6 225.5C1310.64 229.11 1308.77 228.98 1314.67 230.46C1314.67 233.98 1314.67 237.51 1314.67 241.03C1312.77 241.03 1310.87 241.03 1308.97 241.03C1317.31 251.39 1324.09 242.72 1333.66 241.37C1341.38 240.29 1349.82 241.46 1357.27 239.5C1357.47 221.84 1357.31 204.16 1357.32 186.5C1357.32 177.18 1354.64 168.01 1367.5 168.29C1380.19 168.57 1377.18 178.16 1377.17 187.5C1377.16 199.17 1377.15 210.83 1377.17 222.5C1377.17 228.25 1376.63 234.28 1377.5 239.94C1389.03 241.06 1400.91 241.73 1412.5 242.05C1416.76 242.16 1422.92 243.57 1426.37 241.5C1424.78 241.2 1420.99 241.69 1419.67 240.81C1417.83 239.58 1418.59 233.61 1418.72 231.5C1420.96 229.96 1422.75 229.98 1425.5 229.82C1426.83 228.39 1428.17 226.96 1429.5 225.53C1434.84 228.11 1430.66 228.83 1438.5 230.41C1438.93 232.28 1439.84 239.57 1438.26 240.71C1437.04 241.6 1433.57 241.21 1432.06 241.5C1434.17 243.44 1436.86 243.03 1439.84 243.5C1439.71 245.99 1436.51 257.64 1434.76 259.24C1433.84 260.09 1432.5 260.21 1431.3 260.5C1435.08 263.67 1439.55 265.82 1443.11 269.39C1453.46 279.78 1461.93 294.64 1462.84 309.5C1463.12 314.11 1461.21 317.26 1460.53 321.52C1459.96 325.1 1460.62 327.15 1458.5 330.02C1462.34 330.02 1466.19 330.02 1470.03 330.02C1470.03 334.68 1470.03 339.33 1470.03 343.98C1462.94 343.98 1455.84 343.98 1448.75 343.98C1448.64 366.37 1451.05 389.19 1452.86 411.5C1455.63 445.78 1456.77 480.2 1459.29 514.5C1460.38 529.34 1461.2 544.21 1462.5 559.03C1462.91 563.71 1464.88 575.04 1462.5 578.78C1461.47 578.77 1460.75 579.19 1459.72 578.76C1457.7 577.93 1457.93 567.78 1457.76 565.5C1456.75 551.84 1455.68 538.17 1454.96 524.5C1453.09 489.16 1450.35 453.83 1448.16 418.5C1447.2 403.16 1446.49 387.81 1445.2 372.5C1444.42 363.18 1444.7 353.65 1443.5 344.39C1434.11 343.34 1432.64 347.86 1426.57 354.07C1417.85 363.01 1409.14 371.97 1400.44 380.94C1395.2 386.35 1389.86 391.7 1384.53 397.03C1382.46 399.1 1378.31 401.92 1377.4 404.78C1376.07 408.97 1377.18 415.11 1377.18 419.5C1377.16 429.83 1377.2 440.17 1377.17 450.5C1377.08 483.5 1377.18 516.5 1377.14 549.5C1377.13 560.17 1377.18 570.83 1377.17 581.5C1377.17 586.99 1377.75 592.83 1376.5 598.14C1370.17 598.14 1363.83 598.14 1357.5 598.14C1356.48 592.78 1357 586.99 1357 581.5C1357.02 571.5 1357.04 561.5 1357.03 551.5C1356.99 519.83 1357.02 488.17 1357.05 456.5C1357.06 444.5 1357.09 432.5 1357.09 420.5C1357.09 416.08 1358.44 408.89 1356.59 404.84C1355.13 401.62 1350.16 398.34 1347.63 395.87C1339.87 388.3 1332.08 380.74 1324.5 373C1318.07 366.43 1311.37 360.13 1304.96 353.55C1302.91 351.45 1297.76 345.08 1295.3 344.22C1292.23 343.14 1287.73 343.94 1284.5 343.94C1276.76 343.94 1268.92 344.35 1261.21 343.76C1261.21 339.07 1261.21 334.37 1261.21 329.68C1264.7 329.68 1268.18 329.68 1271.67 329.68C1268.19 325.98 1269.96 325.55 1269.5 321.17C1261.46 321.52 1252.79 326.1 1245.03 328.51C1229.89 333.2 1214.68 337.8 1199.31 341.69C1150.34 354.08 1100.58 363.25 1050.49 369.77C983.18 378.55 915.34 382.82 847.5 384.31C747.9 386.49 648.12 382.48 549.1 371.49C486.3 364.51 423.5 355.2 362.26 339.34C344.91 334.85 327.52 330.6 310.44 325.13C303.46 322.89 296.26 321.16 289.5 318.3C289.15 319.49 288.12 321.28 288.13 322.53C288.14 324.64 288.84 326.29 288.5 328.49C290.83 328.49 293.17 328.49 295.5 328.49C296.81 332.94 296.8 337.97 295.71 342.5C285.51 342.28 273.91 337.57 263.85 341.42C259.14 343.23 253.25 351.33 249.53 355.03C238.16 366.34 227.08 377.91 215.99 389.49C212.7 392.92 203.04 400.35 201.85 404.54C200.35 409.79 201.6 417.05 201.6 422.5C201.6 435.83 201.61 449.17 201.59 462.5C201.5 508.04 202.67 553.71 201.5 599.24C194.5 599.24 187.5 599.24 180.5 599.24C179.38 593.55 179.95 587.33 179.96 581.5C179.98 571.5 180 561.5 179.97 551.5C179.89 519.17 179.97 486.83 179.97 454.5C179.97 442.83 180.01 431.17 179.99 419.5C179.98 415.24 181.19 408.75 179.7 404.75C178.57 401.73 173.52 398.53 171.2 396.31C164.74 390.11 158.52 383.65 152.03 377.48C144.02 369.86 136.14 362 128.39 354.12C126.19 351.88 120.03 344.92 117.4 344.05C114.74 343.18 111.23 343.75 108.5 343.97C107.19 351.55 107.27 359.78 106.89 367.5C106.29 379.49 105.62 391.53 104.73 403.5C101.77 443.1 100.68 482.93 97.26 522.5C96.05 536.47 95.09 550.51 94.17 564.5C94 567.03 94.23 576.42 92.8 578.24C92.12 579.11 91.4 578.82 90.5 579.19C86.87 575.57 89.05 566.3 89.55 561.19C90.95 546.86 91.42 532.42 92.5 518.06C95.43 478.91 97.39 439.67 99.95 400.5C100.71 388.83 101.43 377.16 102.21 365.5C102.68 358.39 104.39 350.81 103.5 343.77C96.47 343.77 89.44 343.77 82.41 343.77C82.41 339.24 82.41 334.72 82.41 330.19C87.01 329.63 91.6 329.06 96.2 328.5C95.1 328.17 93.28 327.97 92.57 326.96C91.42 325.33 92.83 324.26 92.57 322.68C92.42 321.78 91.47 321.23 91.22 320.34C90.26 316.92 89.96 312.05 90.12 308.5C91.04 287.8 104.98 272.07 120.74 260.5C118.88 254.83 117.02 249.17 115.15 243.5C117.77 242.57 120.38 241.65 123 240.72C120.58 240.72 118.17 240.72 115.75 240.72C115.75 237.31 115.75 233.91 115.75 230.5C117.88 228.91 119.72 228.84 122.42 228.5C123.63 225.7 124.65 224.51 127.77 224.5C133.04 229.1 128.21 227.43 136.42 229.5C136.42 232.91 136.42 236.32 136.42 239.72C134.2 240.32 131.97 240.91 129.75 241.5C133.8 242.48 137.29 245.83 141.5 245.85C146.11 245.87 149.12 242 153.55 241.25C162.17 239.8 170.88 240.35 179.5 239.4C180.53 233.26 180.02 226.74 180.01 220.5C180 209.5 180.02 198.5 180.01 187.5C180.01 181.31 178.63 173.27 180.79 167.5C186.52 163.56 194.93 163.93 200.75 167.5ZM1076.01 170.5C1073.84 181.2 1071.67 191.9 1069.5 202.6C1063.16 202.46 1056.85 201.33 1050.5 201.07C1021.89 199.86 973.81 202.99 966.52 238.03C965.47 243.05 965.41 248.41 965.97 253.5C970.13 291.6 1020.69 284.76 1046.75 278.38C1053.98 276.61 1062.17 272.19 1069.5 272.4C1070.83 281.45 1072.17 290.5 1073.5 299.55C1062.91 306.08 1040.04 309.5 1027.5 311.19C990.07 316.23 939.38 317.52 923.68 274.78C921.28 268.26 920.14 261.43 919.84 254.5C919.5 246.78 920.09 239 922.03 231.51C934.07 184.95 984.11 174.45 1025.49 170.71C1037.1 169.66 1048.84 168.41 1060.5 168.4C1065.51 168.4 1071.53 168.19 1076.01 170.5ZM555.5 168.91C581.14 169.75 606.92 172.67 632.5 174.69C649.66 176.04 668.8 176.77 684.24 185.28C705.89 197.21 713.64 228.71 698.42 248.88C692.79 256.33 684.87 259.33 676.94 263.5C689.78 282.17 702.62 300.83 715.45 319.5C703.51 320.95 690.54 319.25 678.5 318.93C674.73 318.82 668.1 319.88 664.77 317.79C662.11 316.12 657.88 307.55 655.94 304.6C651.17 297.35 646.45 290.06 641.62 282.85C638.36 277.99 634.69 273.27 632.5 267.87C621.29 267.87 610.07 267.87 598.86 267.87C597.98 278.62 598.63 289.7 598.65 300.5C598.66 305.23 599.64 311.41 597.51 315.5C583.48 314.83 569.46 314.17 555.43 313.5C553.14 303.87 554.72 290.63 554.72 280.5C554.71 258.83 554.72 237.17 554.73 215.5C554.73 205.5 554.74 195.5 554.74 185.5C554.74 180.05 554.02 174.12 555.5 168.91ZM790.5 182.95C810.17 182.95 829.83 182.95 849.5 182.95C870.69 227.8 891.89 272.65 913.08 317.5C897.56 318.02 882.03 318.53 866.5 319.05C862.17 309.65 857.83 300.24 853.5 290.84C830.5 290.84 807.5 290.84 784.5 290.84C780.17 300.72 775.83 310.61 771.5 320.49C756.24 320.49 740.98 320.49 725.71 320.49C747.31 274.64 768.9 228.8 790.5 182.95ZM598.71 237.5C602.97 237.89 607.24 237.99 611.5 238.28C625.59 239.24 658.98 245.46 659.86 223.5C660.74 201.63 627.82 203.74 613.5 202.94C608.61 202.66 603.54 201.89 598.71 202.5C598.71 214.17 598.71 225.83 598.71 237.5ZM818.5 214.66C811.78 230.38 805.05 246.1 798.33 261.82C812.19 261.82 826.05 261.82 839.91 261.82C838.3 252.86 829.86 237.54 825.73 228.74C823.55 224.11 822.02 218.23 818.5 214.66ZM130.13 231.5C126.96 229.43 122.64 229.56 119.52 231.5C122.98 233.49 126.44 232.8 130.13 231.5ZM257.34 231.5C253.53 230.31 250.02 229.44 246.51 231.5C249.79 233.39 253.91 233.21 257.34 231.5ZM1309.06 232.5C1306.05 231.17 1301.11 230.33 1298.41 232.5C1301.75 233.85 1305.56 233.27 1309.06 232.5ZM1432.9 232.5C1430.09 230.72 1424.64 230.46 1422.11 232.5C1425.29 234.22 1429.49 233.51 1432.9 232.5ZM130.68 236.5C126.84 235.41 123.2 234.26 119.72 236.5C122.67 238.66 127.26 237.89 130.68 236.5ZM257.5 237.58C257.29 237.3 257.56 236.87 257.47 236.53C257.32 235.99 254.93 235.85 254.52 235.78C251.05 235.11 248.66 234.45 246.9 237.58C250.44 237.58 253.97 237.58 257.5 237.58ZM1309.38 237.5C1306.38 235.78 1301.9 235.95 1298.5 236.91C1300 239.99 1306.29 238.04 1309.38 237.5ZM1433.03 237.5C1430.36 235.39 1425.89 235.77 1422.38 236.5C1422.71 237.32 1422.32 237.68 1423.12 238.33C1423.64 238.75 1431.87 237.68 1433.03 237.5ZM1303.5 240.27C1303.35 240.35 1303.21 240.42 1303.06 240.5C1303.21 240.6 1303.35 240.7 1303.5 240.79C1303.83 240.85 1304.17 240.91 1304.5 240.97C1304.83 240.94 1305.17 240.92 1305.5 240.89C1305.63 240.76 1305.76 240.63 1305.89 240.5C1305.76 240.41 1305.63 240.32 1305.5 240.23C1305.17 240.22 1304.83 240.21 1304.5 240.2C1304.17 240.22 1303.83 240.24 1303.5 240.27ZM1431.02 240.5C1429.7 240.5 1428.39 240.5 1427.07 240.5C1428.39 240.5 1429.7 240.5 1431.02 240.5ZM1291.99 258.5C1290.07 261.85 1285.28 263.44 1281.68 265.2C1273.13 269.38 1264.52 272.98 1255.49 275.96C1251.42 277.31 1249.1 279.28 1244.69 278.5C1253.98 273.38 1264.56 270.13 1274.23 265.7C1279.63 263.23 1286.01 258.68 1291.99 258.5ZM238.44 260.5C226.48 258.24 213.85 259.14 201.69 259.5C201.69 265.5 201.69 271.5 201.69 277.5C205.96 279.57 210.23 281.65 214.5 283.72C222.48 275.98 230.46 268.24 238.44 260.5ZM1221.89 289.5C1218.4 293.2 1211.49 294.39 1206.64 296.15C1193.03 301.1 1179.38 305.78 1165.57 310.15C1112.31 327.02 1057.65 337.51 1002.57 346.29C913.8 360.44 819.22 363.31 729.5 359.37C636.54 355.28 543.95 345.29 453.44 323.2C408.22 312.17 363.83 298.83 320.33 282.21C307.91 277.47 295.68 272.31 283.51 266.97C278.41 264.74 272.97 262.78 268.44 259.5C275.07 259.28 280.94 263.05 286.94 265.54C298.49 270.34 309.94 275.35 321.61 279.85C358.81 294.18 397.01 305.78 435.53 315.95C546.8 345.34 662.7 355.93 777.5 358.09C880.12 360.03 984 350.31 1084.27 328.62C1116.6 321.63 1148.8 313.14 1180.16 302.59C1189.57 299.42 1198.94 296.1 1208.27 292.7C1212.78 291.05 1217.06 288.57 1221.89 289.5ZM179.97 271.5C174.76 268.24 165.98 261.83 160.16 260.45C153.59 258.89 145.24 260.16 138.5 260.22C134.47 260.25 129.65 259.5 125.72 260.36C120.89 261.41 115.43 267.17 112.02 270.51C100.11 282.14 89.9 299.29 92.5 316.53C97.79 317.7 100.01 315.35 104.5 313.87C107.85 316.96 108.29 316.81 113.04 317.5C113.04 320.52 113.04 323.53 113.04 326.55C111.31 328.34 110.07 328.4 107.27 328.52C131.51 328.52 155.74 328.52 179.97 328.52C179.97 309.52 179.97 290.51 179.97 271.5ZM179.86 259.88C175.69 259.88 171.53 259.88 167.36 259.88C171.53 262.29 175.69 264.7 179.86 267.11C179.86 264.7 179.86 262.29 179.86 259.88ZM1357.07 260.21C1344.98 260.21 1332.89 260.21 1320.8 260.21C1328.7 268.19 1336.6 276.17 1344.5 284.16C1348.69 282.27 1352.88 280.39 1357.07 278.5C1357.07 272.4 1357.07 266.31 1357.07 260.21ZM1377.29 260.24C1377.29 262.51 1377.29 264.77 1377.29 267.04C1381.02 264.77 1384.76 262.51 1388.49 260.24C1384.76 260.24 1381.02 260.24 1377.29 260.24ZM1458.5 317.69C1462.45 301.07 1450.82 282.23 1439.62 270.88C1435.87 267.08 1431.21 262.06 1425.84 260.63C1422.36 259.7 1418.09 260.29 1414.5 260.24C1409.2 260.17 1403.1 259.45 1397.89 260.48C1390.72 261.9 1383.23 267.65 1377.17 271.5C1377.17 290.8 1377.17 310.1 1377.17 329.41C1398.37 329.41 1419.57 329.41 1440.77 329.41C1439.54 326.34 1439.09 322.78 1439.86 319.5C1442.09 317.9 1443.87 318.69 1446.3 317.72C1447.76 317.14 1449.05 315.34 1450.5 314.5C1454.42 316.84 1453.02 317.96 1458.5 317.69ZM202.5 281.84C201.11 286 201.19 291.13 202.5 295.33C205.35 292.39 208.19 289.44 211.04 286.5C208.19 284.95 205.35 283.39 202.5 281.84ZM1357.02 282.17C1353.94 283.95 1350.85 285.72 1347.76 287.5C1350.85 290.31 1353.94 293.12 1357.02 295.93C1357.02 291.35 1357.02 286.76 1357.02 282.17ZM1344.5 288.61C1339.79 289.94 1335.45 292.48 1330.96 294.47C1320.32 299.19 1309.73 304.18 1298.88 308.42C1294.34 310.2 1285.1 312.23 1283.06 316.5C1285.3 317.17 1287.54 317.83 1289.78 318.5C1289.78 322.11 1289.78 325.72 1289.78 329.33C1312.02 329.33 1334.26 329.33 1356.5 329.33C1358.03 323.13 1357.17 315.95 1357.14 309.5C1357.13 306.83 1357.76 303.26 1356.78 300.73C1355.47 297.36 1347.39 291.23 1344.5 288.61ZM281.97 319.5C278.31 318.27 272.94 317.1 270.83 320.5C274.39 321.49 278.78 321.57 281.97 319.5ZM107.8 319.5C103.92 318.59 98.95 318.15 95.23 319.5C97.94 322.13 104.92 321.81 107.8 319.5ZM1284.22 320.5C1280.56 319.29 1275.81 318.49 1272.32 320.5C1275.53 322.89 1280.57 321.4 1284.22 320.5ZM1454.09 320.5C1450.51 319.19 1446.19 318.19 1443 320.5C1446.14 322.56 1450.47 321.28 1454.09 320.5ZM107.79 324.5C103.94 323.46 98.78 322.06 95.72 324.5C98.63 327.13 104.34 326.81 107.79 324.5ZM281.96 324.5C278.8 322.85 273.64 322.25 271.12 324.5C273.91 327.23 278.6 326.42 281.96 324.5ZM1284.17 325.5C1280.91 323.27 1276.81 323.53 1273.06 324.5C1275.2 327.95 1280.54 326.49 1284.17 325.5ZM1453.84 325.5C1450.74 323.43 1446.45 323.58 1442.96 324.5C1445.14 327.85 1450.12 326.26 1453.84 325.5ZM99.5 328.12C99.31 328.25 99.11 328.37 98.92 328.5C99.06 328.83 99.21 329.17 99.35 329.5C99.4 329.54 99.45 329.57 99.5 329.61C99.83 329.66 100.17 329.7 100.5 329.75C100.61 329.66 100.71 329.58 100.82 329.5C100.82 329.17 100.83 328.83 100.83 328.5C100.72 328.4 100.61 328.29 100.5 328.19C100.17 328.17 99.83 328.14 99.5 328.12ZM256.76 342.5C249.5 340.19 242.79 342.3 235.5 342.73C224.4 343.38 212.94 342.08 201.95 343.5C200.72 354.66 201.66 366.26 201.63 377.5C201.61 384.17 200.58 391.89 202.5 398.22C220.59 379.64 238.67 361.07 256.76 342.5ZM179.97 343.48C161.15 343.48 142.32 343.48 123.5 343.48C142.32 361.99 161.15 380.49 179.97 399C179.97 380.49 179.97 361.99 179.97 343.48ZM1357.03 343.97C1338.29 343.97 1319.56 343.97 1300.82 343.97C1319.56 362.53 1338.29 381.09 1357.03 399.66C1357.03 381.09 1357.03 362.53 1357.03 343.97ZM1377.18 343.99C1377.18 362.3 1377.18 380.61 1377.18 398.93C1395.11 380.61 1413.04 362.3 1430.97 343.99C1413.04 343.99 1395.11 343.99 1377.18 343.99ZM408.2 393.78C408.2 402.69 408.2 411.59 408.2 420.5C403.33 421.05 398.4 420.31 393.5 420.12C380.52 419.6 367.48 418.31 354.5 418.31C338.48 418.3 327.93 424.92 326.06 441.5C353.08 442.83 380.1 444.17 407.13 445.5C407.13 453.91 407.13 462.33 407.13 470.74C380.06 470.74 352.99 470.74 325.92 470.74C329.53 494 345.14 495.73 365.5 495.83C374.5 495.88 383.5 495.95 392.5 496C397.71 496.03 403.07 495.59 408.2 496.5C408.2 505.5 408.2 514.5 408.2 523.5C395.09 524.6 381.66 523.96 368.5 524.09C349.7 524.28 328.95 525.91 312.55 514.98C286.5 497.62 283.8 453.62 291.8 426.42C295.4 414.19 302.38 402.67 313.69 396.19C327.2 388.46 342.52 389.06 357.5 390C374.41 391.05 391.32 392.38 408.2 393.78ZM1264.71 393.01C1264.71 403.17 1264.71 413.34 1264.71 423.5C1259.33 424.1 1253.93 423.25 1248.5 423.05C1232.2 422.46 1211.45 420.7 1196.79 429.31C1174.69 442.3 1173.98 484.13 1199.19 494.37C1214.32 500.51 1232.68 498.4 1248.5 496.75C1253.91 496.19 1259.31 494.94 1264.7 495.49C1264.7 505.23 1264.7 514.97 1264.7 524.71C1254.29 528.22 1233.9 526.99 1222.5 526.98C1203.96 526.97 1184.01 525.97 1168.04 515.46C1138.42 495.98 1135.73 448.32 1155.49 421C1173.38 396.27 1206.61 393.94 1234.5 392.77C1243.95 392.38 1255.65 390.11 1264.71 393.01ZM425.5 395.35C436.99 396.07 448.48 396.78 459.97 397.5C461.73 420.25 460.21 443.67 460.23 466.5C460.23 475.06 459.28 487.62 467.26 493.26C473.6 497.74 482.13 497.4 489.5 497.39C501.95 497.37 515.48 496.38 527.75 498.2C527.75 506.36 527.75 514.52 527.75 522.68C517.91 524.05 507.45 523.21 497.5 523.23C478.54 523.27 455.28 526.14 439.71 512.81C424.26 499.57 425.1 479.07 425.11 460.5C425.11 450.17 425.13 439.83 425.1 429.5C425.07 418.5 423.62 406.15 425.5 395.35ZM1124.94 400.42C1124.94 441.98 1124.94 483.54 1124.94 525.1C1113 525.1 1101.06 525.1 1089.12 525.1C1089.12 484.2 1089.12 443.29 1089.12 402.38C1101.06 401.72 1113 401.07 1124.94 400.42ZM655.28 406.5C655.28 414.5 655.28 422.5 655.28 430.5C636.12 431.59 616.61 427.91 597.5 429.85C584.66 431.15 574.41 436.86 572.33 450.5C599.57 451.17 626.82 451.83 654.06 452.5C654.06 460.36 654.06 468.23 654.06 476.09C626.87 476.09 599.69 476.09 572.5 476.09C572.31 487.52 582.33 494.78 592.5 496.98C599.72 498.54 607.16 498.25 614.5 498.24C628 498.2 641.84 497.47 655.3 498.5C655.3 506.5 655.3 514.5 655.3 522.5C646.21 524.75 634.94 523.24 625.5 523.23C603.28 523.21 575.33 527.26 556.03 513.49C526.59 492.47 524.92 434.7 555.2 413.68C575.05 399.9 601.9 404.28 624.5 404.96C634.44 405.27 645.62 404.29 655.28 406.5ZM1042.1 477.5C1052.54 493.3 1062.97 509.1 1073.4 524.89C1059.44 524.89 1045.47 524.89 1031.5 524.89C1022.52 511.09 1013.55 497.28 1004.57 483.48C995.34 483.48 986.11 483.48 976.87 483.48C976.87 497.04 976.87 510.61 976.87 524.18C964.83 524.18 952.78 524.18 940.73 524.18C940.73 485.29 940.73 446.39 940.73 407.5C952.05 404.85 970.37 406.13 982.5 405.78C1001.71 405.22 1026.16 401.43 1044.45 408.04C1064.95 415.44 1072.13 440.92 1062.27 459.74C1059.29 465.44 1054.4 470.17 1048.86 473.37C1046.43 474.77 1043.95 475.53 1042.1 477.5ZM790.22 408.5C790.22 417.11 790.22 425.71 790.22 434.32C771.66 433.56 753.07 430.68 734.5 433.03C722.38 434.57 710.75 441.26 707.33 453.72C706.28 457.56 705.86 461.53 705.85 465.5C705.84 469.68 706.23 474.01 707.5 478.01C715.48 503.14 752.06 500.51 772.82 498.47C778.56 497.91 784.56 496.91 790.28 497.5C790.28 505.83 790.28 514.17 790.28 522.5C781.01 524.37 770.95 523.95 761.5 524.12C739.07 524.52 711.56 526.63 691.84 513.64C661.33 493.52 660.32 439.08 691 418.5C711.75 404.57 739.76 406.99 763.5 407.65C772.29 407.89 781.57 407.08 790.22 408.5ZM922.2 407.78C922.2 416.06 922.2 424.34 922.2 432.63C908.16 432.63 894.13 432.63 880.09 432.63C880.09 463.07 880.09 493.51 880.09 523.94C868.15 523.94 856.21 523.94 844.28 523.94C844.28 493.61 844.28 463.27 844.28 432.94C830.43 432.94 816.58 432.94 802.73 432.94C802.73 424.55 802.73 416.16 802.73 407.78C842.55 407.78 882.37 407.78 922.2 407.78ZM976.87 458.5C981.02 459.18 985.28 458.89 989.5 458.82C1001.72 458.62 1028.42 461.55 1027.75 442.51C1027.14 425.13 1000.67 429.69 989.5 429.86C985.28 429.92 981 429.76 976.87 430.5C976.87 439.83 976.87 449.17 976.87 458.5ZM459.57 638.76C470.58 638.76 481.6 638.76 492.61 638.76C492.61 643.25 492.61 647.74 492.61 652.23C474.91 652.23 457.2 652.23 439.5 652.23C439.38 648.99 438.8 645.22 439.54 642.04C441.74 632.51 454.05 622.79 461.07 616.56C466.76 611.5 474.07 606.6 475.35 598.53C476.63 590.47 468.89 584.38 461.25 587.7C456.79 589.64 456.55 594.1 454.5 597.83C449.5 597.08 444.5 596.33 439.5 595.58C441.36 571.57 478.68 564.8 489.74 585.77C491.12 588.39 491.83 591.55 492.01 594.5C493.45 617.75 467.24 622.12 459.57 638.76ZM544.27 611.5C557.97 616.82 562.27 634.42 551.95 645.44C537.54 660.84 505.94 655.24 502.52 632.5C507.51 631.68 512.51 630.86 517.5 630.04C518.58 633.11 519.39 636.31 522.11 638.4C527.8 642.76 537.95 640.96 540.41 633.85C541.3 631.27 541.25 628.56 540.52 625.94C537.94 616.75 526.41 618.94 519.31 617.74C519.31 613.95 519.31 610.16 519.31 606.36C526.84 604.98 542.95 606.39 538.77 592.69C536.86 586.43 527.95 585.22 523.17 588.66C520.65 590.46 520.08 593.48 518.5 595.93C513.83 595.03 509.17 594.14 504.5 593.25C504.29 563.23 566.54 569.05 553.99 601.47C552.04 606.49 547.77 608.06 544.27 611.5ZM659.2 637.5C663.63 636.35 668.07 635.19 672.5 634.04C674.9 636.31 676.43 639.52 679.85 640.58C691.39 644.15 696.61 630.06 696.5 621.05C692.66 623.56 689.26 626.32 684.5 626.95C652.51 631.15 646.46 584.35 674.5 574.99C678.18 573.76 682.27 573.13 686.16 573.48C690.62 573.89 695.16 575.19 699.02 577.49C705.8 581.55 709.38 589.04 711.24 596.44C715.24 612.36 714.09 637.41 699.85 648.37C686.42 658.69 664.46 654.16 659.2 637.5ZM1076.39 637.5C1081.09 636.47 1085.8 635.44 1090.5 634.41C1100.71 650.94 1114.98 634.93 1113.5 621.01C1095.64 636.63 1072.71 621.57 1073.99 599.5C1075.26 577.74 1098.22 566.22 1116.74 577.75C1123.35 581.87 1126.62 588.91 1128.42 596.19C1132.29 611.88 1131.33 638.8 1116.55 649.03C1103.17 658.29 1081.16 654 1076.39 637.5ZM603.57 575.5C603.57 600.83 603.57 626.17 603.57 651.5C598.61 652.72 592.57 652.84 587.66 651.5C587.52 638.17 587.57 624.83 587.56 611.5C587.56 606.03 588.9 598.34 586.74 593.5C581.76 595.33 575.67 598.21 570.28 597.12C570.28 593.09 570.28 589.06 570.28 585.03C574.36 583.57 578.53 583 582.44 580.96C585.16 579.53 587.9 576.11 590.67 575.22C594.33 574.03 599.92 574.81 603.57 575.5ZM772.03 575.01C772.03 591.35 772.03 607.7 772.03 624.04C774.91 624.04 777.79 624.04 780.67 624.04C780.67 628.33 780.67 632.62 780.67 636.9C777.78 636.9 774.89 636.9 772 636.9C772 642.01 772 647.13 772 652.24C766.97 652.24 761.93 652.24 756.9 652.24C756.9 647.14 756.9 642.04 756.9 636.94C745.25 636.94 733.61 636.94 721.96 636.94C721.8 632.86 720.92 627.59 722.11 623.64C723.37 619.5 727.67 615.19 730.06 611.59C734.85 604.36 739.57 597.07 744.36 589.84C746.16 587.13 751.73 576.79 753.95 575.49C756.97 573.71 768.15 574.95 772.03 575.01ZM838.08 575.5C838.08 591.68 838.08 607.85 838.08 624.03C841.03 624.03 843.97 624.03 846.91 624.03C846.91 628.33 846.91 632.64 846.91 636.94C843.94 636.94 840.97 636.94 838 636.94C838 642.03 838 647.13 838 652.22C833.02 652.22 828.05 652.22 823.07 652.22C823.07 647.14 823.07 642.05 823.07 636.96C811.56 636.96 800.04 636.96 788.53 636.96C788.26 633 787.49 627.8 788.5 623.93C789.46 620.29 793 616.64 794.99 613.48C800 605.54 805.4 597.86 810.43 589.93C812.14 587.25 818.33 576.2 820.72 575.24C824.05 573.89 834.53 574.71 838.08 575.5ZM936.23 575.5C936.23 591.69 936.23 607.88 936.23 624.06C939.21 624.06 942.19 624.06 945.18 624.06C945.18 628.35 945.18 632.64 945.18 636.92C942.18 636.92 939.17 636.92 936.17 636.92C936.17 642.02 936.17 647.12 936.17 652.22C931.19 652.22 926.2 652.22 921.22 652.22C921.22 647.13 921.22 642.05 921.22 636.96C909.72 636.96 898.23 636.96 886.73 636.96C886.27 633.07 885.66 627.99 886.61 624.15C887.58 620.2 891.55 615.68 893.8 612.3C898.88 604.68 903.77 596.94 908.9 589.35C910.8 586.53 915.96 576.3 918.69 575.21C922.08 573.87 932.65 574.69 936.23 575.5ZM1005.72 574.96C1005.72 579.41 1005.72 583.86 1005.72 588.31C995.57 588.31 985.43 588.31 975.28 588.31C973.69 593.22 972.65 599.44 973.5 604.45C983.58 596.56 999.29 599.69 1005.92 610.63C1011.2 619.35 1010.99 632.62 1005.94 641.39C995.12 660.17 957.61 657.35 955.46 633.5C960.14 632.65 964.82 631.8 969.5 630.95C971.54 633.85 972.66 637.66 976.1 639.41C984.71 643.79 992.95 637.18 993.66 628.43C994.41 619.19 988.02 610.34 977.91 613.46C974.43 614.53 972.67 617.32 970.5 619.97C966.1 619.14 961.71 618.32 957.31 617.5C958.86 603.32 960.41 589.14 961.95 574.96C976.54 574.96 991.13 574.96 1005.72 574.96ZM1054.92 575.2C1054.92 600.86 1054.92 626.53 1054.92 652.2C1049.61 652.2 1044.3 652.2 1038.99 652.2C1038.99 632.63 1038.99 613.07 1038.99 593.5C1033.33 594.79 1027.66 596.07 1022 597.36C1022 593.09 1022 588.82 1022 584.55C1027.08 583.66 1031.87 582.59 1036.27 579.75C1038.08 578.58 1039.82 576.13 1041.79 575.36C1045.4 573.94 1051.12 574.92 1054.92 575.2ZM680.71 587.31C667.62 590.74 670.47 618.39 687.46 613.95C702.15 610.12 696.68 583.11 680.71 587.31ZM1097.76 587.35C1084.97 591.15 1088.21 616.89 1102.82 614.42C1119.53 611.6 1114.69 582.31 1097.76 587.35ZM756.82 593.25C750.47 603.51 744.12 613.77 737.77 624.03C744.12 624.03 750.47 624.03 756.82 624.03C756.82 613.77 756.82 603.51 756.82 593.25ZM921.15 593.36C914.77 603.55 908.39 613.75 902.01 623.94C908.39 623.94 914.77 623.94 921.15 623.94C921.15 613.75 921.15 603.55 921.15 593.36ZM822.99 593.61C816.64 603.73 810.29 613.84 803.94 623.96C810.29 623.96 816.64 623.96 822.99 623.96C822.99 613.84 822.99 603.73 822.99 593.61ZM634.8 634.46C646.63 632.81 649.23 651.44 637.46 652.79C625.32 654.17 622.74 636.15 634.8 634.46ZM866.73 634.48C879.04 634.02 878.83 653.15 866.5 652.89C854.59 652.63 854.93 634.93 866.73 634.48Z" fill="#ffffff" fill-rule="evenodd" stroke="#ffffff" stroke-width="0.25" stroke-linejoin="round"/>
<path d="M373.5 557.93C374.45 562.06 372.06 566.23 370.75 570.32C367.94 579.06 364.98 587.75 362.19 596.5C368.94 598.73 383.5 596.29 387.9 599.5C386.94 604.26 380.72 609.13 377.29 612.78C368.55 622.05 360.11 631.63 351.62 641.13C348.5 644.62 343.73 652.74 339.02 652.5C337.73 648.92 340.23 644.44 341.39 640.82C344.14 632.29 348.57 622.98 349.5 614.09C342.09 611.68 330.63 615.3 324.5 611.5C324.75 608.01 332.27 601.22 334.88 598.37C343.63 588.81 352.48 579.21 360.88 569.34C364.18 565.45 368.57 558.73 373.5 557.93ZM1226.37 558.5C1222.56 571.17 1218.76 583.83 1214.95 596.5C1222.21 598.83 1234.66 595.81 1240.23 599.5C1239.07 604.56 1233.6 608.71 1230.11 612.63C1221.64 622.14 1213.02 631.53 1204.38 640.87C1200.9 644.63 1196.52 652.06 1191.5 652.77C1190.4 648.99 1192.56 645.11 1193.75 641.36C1196.59 632.41 1200.29 623.5 1202.5 614.39C1194.73 611.58 1184.53 615.52 1177.5 611.64C1177.4 607.23 1183.77 602.4 1186.64 599.15C1195.71 588.89 1204.93 578.77 1214.02 568.53C1215.5 566.86 1222.18 558.57 1223.73 558.15C1225.05 557.8 1225.16 558.34 1226.37 558.5Z" fill="#f9b61f" fill-rule="evenodd" stroke="#f9b61f" stroke-width="0.25" stroke-linejoin="round"/>
</svg>